<svg xmlns="http://www.w3.org/2000/svg" xmlns:xlink="http://www.w3.org/1999/xlink" version="1.1" x="0px" y="0px" viewBox="0 0 100 125" enable-background="new 0 0 100 100" xml:space="preserve"><path d="M60.5000305,18.6420898l1.637146-4.0927734c-0.836853-0.5880127-1.387146-1.5567627-1.387146-2.6572266  c0-1.1699219,0.6237793-2.1868896,1.5513306-2.7592773c0.2428589-1.4130859,1.4662476-2.4907227,2.9486694-2.4907227  c1.0047607,0,1.8887939,0.4984131,2.4332275,1.2567139c0.0227661-0.0004883,0.0438843-0.0067139,0.0667725-0.0067139  c1.6568604,0,3,1.3431396,3,3c0,0.6147461-0.1862793,1.1851807-0.503418,1.6608887  c0.0752563,0.2687988,0.128418,0.5463867,0.128418,0.8391113c0,1.7258301-1.3991089,3.125-3.125,3.125  c-0.93927,0-1.7718506-0.4228516-2.3446655-1.0788574L60.5000305,18.6420898z M29.5937805,15.0795898  c0,1.5820313,1.2824707,2.864502,2.864563,2.864502c0.8609619,0,1.6242065-0.3875732,2.149292-0.9888916l4.038208,2.9368896  l-1.5007324-3.751709c0.7671509-0.5390625,1.2715454-1.427002,1.2715454-2.435791  c0-1.0725098-0.5717773-2.0046387-1.4220581-2.5292969c-0.2225952-1.2954102-1.3440552-2.2832031-2.7029419-2.2832031  c-0.9210205,0-1.7313843,0.4567871-2.2304688,1.1519775c-0.020874-0.0003662-0.0402222-0.0062256-0.0611572-0.0062256  c-1.5187988,0-2.75,1.2312012-2.75,2.75c0,0.5635986,0.1707153,1.0864258,0.4614258,1.5224609  C29.6424866,14.5567627,29.5937805,14.8112793,29.5937805,15.0795898z M83.7512512,59.8581543v4.9505615h-3.1880493V92.861084  h-4.9086304V64.8087158h-6.4327393l-5.5440674,25.0218506c-0.4648438,2.0986328-2.3251953,3.5273438-4.3891602,3.5273438  c-0.3227539,0-0.6499023-0.0351563-0.9780273-0.1074219c-2.4262695-0.5380859-3.9575195-2.9404297-3.4199219-5.3671875  l4.7290039-21.3427734l-4.241333-1.7318115H44.6217346l-4.241333,1.7318115l4.7290039,21.3427734  c0.5375977,2.4267578-0.9936523,4.8291016-3.4199219,5.3671875c-0.328125,0.0722656-0.6557617,0.1074219-0.9780273,0.1074219  c-2.0639648,0-3.9238281-1.4287109-4.3891602-3.5273438l-5.5440674-25.0218506h-6.4328003V92.861084h-4.9086304V64.8087158  h-3.1880493v-4.9505615h16.8001099c0.1373901-0.0736084,0.2689819-0.1550293,0.4160156-0.2150879l4.4364014-1.8115234  c-0.0084839-0.1259766-0.019165-0.2514648-0.019165-0.3795166v-5.3361816  c-1.2959595,0.5286865-2.836731,0.2529297-3.8591919-0.8231201l-8.6228638-9.0805664  c-0.3796387-0.3996582-0.6456909-0.8647461-0.8004761-1.3565674c-0.3886108-1.2352295-0.0739136-2.6395264,0.9287109-3.5916748  c0.0410767-0.0390625,0.0888672-0.0651855,0.1312866-0.1018066c0.1729126-0.173584,0.3637695-0.3336182,0.5777588-0.472168  l13.5543213-8.7758789c0.4092407-0.359375,0.8701782-0.6594238,1.3719482-0.8881836l0.7458496-0.4829102  c0.0877686-0.0568848,0.182251-0.0921631,0.2729492-0.1401367c0.0498657,0.0788574,0.100647,0.1572266,0.1529541,0.2347412  c0.2023926,0.2998047,0.4161987,0.5928955,0.6544189,0.869751c1.1369629,1.3205566,2.6027222,2.2722168,4.2182617,2.7873535  c0.8946533,0.2852783,1.8338013,0.4411621,2.7919922,0.4411621c0.9580688,0,1.8972168-0.1558838,2.7919312-0.4411621  c1.6154175-0.5152588,3.0811157-1.4669189,4.2183228-2.7873535c0.2382202-0.2768555,0.4520264-0.5699463,0.6544189-0.869751  c0.0523071-0.0775146,0.1030884-0.1558838,0.1529541-0.2347412c0.0906372,0.0480957,0.1851196,0.083252,0.2728882,0.1401367  l0.7458496,0.4829102c0.50177,0.2287598,0.9627075,0.5288086,1.3719482,0.8881836l13.5543213,8.7758789  c0.2139893,0.1385498,0.4048462,0.298584,0.5777588,0.472168c0.0424194,0.0366211,0.090271,0.0627441,0.1312866,0.1018066  c1.0026245,0.9521484,1.3173218,2.3564453,0.9287109,3.5916748c-0.1547852,0.4918213-0.4208374,0.9569092-0.8004761,1.3565674  l-8.6228638,9.0805664c-1.0224609,1.0760498-2.5632324,1.3518066-3.8591919,0.8231201v5.3361816  c0,0.1280518-0.0106812,0.25354-0.019165,0.3795166l4.4364624,1.8115234  c0.1470337,0.0600586,0.2786255,0.1414795,0.4160156,0.2150879H83.7512512z M62.1178894,45.190918l4.5291138-4.7696533  l-4.5291138-2.9324951V45.190918z M37.8821106,37.4887695l-4.5291138,2.9324951l4.5291138,4.7696533V37.4887695z   M43.4837341,26.5194092c0.0871582,0.1124268,0.1706543,0.2271729,0.263855,0.3355713  c0.9627075,1.1179199,2.1888428,1.9403076,3.5421143,2.4146729c0.8630981,0.3026123,1.7769165,0.4661865,2.7103271,0.4661865  c0.9333496,0,1.8471069-0.1638184,2.7102661-0.4663086c1.3530884-0.4743652,2.5792847-1.2966309,3.5421753-2.4145508  c0.0932007-0.1083984,0.1766968-0.2231445,0.263855-0.3355713c0.1187744-0.1531982,0.2319946-0.3094482,0.3392334-0.4698486  c0.90448-1.3520508,1.4008179-2.9399414,1.4008179-4.5705566c0-4.5527344-3.7036133-8.2568359-8.2563477-8.2568359  s-8.2563477,3.7041016-8.2563477,8.2568359c0,1.6306152,0.4963379,3.2185059,1.4008179,4.5705566  C43.2517395,26.2099609,43.3649597,26.3662109,43.4837341,26.5194092z"/>
<!-- <text x="0" y="115" fill="#000000" font-size="5px" font-weight="bold" font-family="'Helvetica Neue', Helvetica, Arial-Unicode, Arial, Sans-serif">Created by Llisole</text><text x="0" y="120" fill="#000000" font-size="5px" font-weight="bold" font-family="'Helvetica Neue', Helvetica, Arial-Unicode, Arial, Sans-serif">from the Noun Project</text> --></svg>