<svg xmlns="http://www.w3.org/2000/svg" xmlns:xlink="http://www.w3.org/1999/xlink" version="1.1" x="0px" y="0px" viewBox="0 0 165.228 332.15874999999994" style="enable-background:new 0 0 165.228 265.727;" xml:space="preserve"><g><ellipse transform="matrix(0.9947 -0.1033 0.1033 0.9947 -5.274 12.1695)" cx="114.863" cy="57.007" rx="22.496" ry="22.494"/><path d="M148.001,159.97c0.704-2.864,1.313-5.574,1.84-8.18c-2.284,2.146-4.785,4.336-7.562,6.593   c-1.592,1.287-3.547,2.052-5.572,2.201c-0.241,0.018-0.483,0.031-0.726,0.031c-3.033,0-5.866-1.35-7.773-3.7   c-1.681-2.074-2.456-4.681-2.18-7.339c0.017-0.155,0.048-0.306,0.071-0.459c0.373-2.471,1.623-4.685,3.576-6.27   c8.377-6.782,12.566-11.763,14.607-14.743c2.669-3.891,2.948-6.075,2.943-6.834c-0.026-0.813-0.116-1.186-1.089-2.301   c-0.975-1.072-2.966-2.369-5.167-3.356c-4.614-2.127-10.405-3.183-11.592-3.33l-0.145-0.021c-2.656-0.333-5.02-1.675-6.66-3.783   c-1.64-2.11-2.358-4.73-2.028-7.381c0.015-0.116,0.041-0.227,0.06-0.342c0.774-4.822,4.944-8.416,9.853-8.416   c0.416,0,0.838,0.025,1.252,0.077c0.363,0.049,0.871,0.122,1.493,0.225c1.926,0.317,4.989,0.92,8.602,1.999   c1.478,0.458,3.066,0.988,4.71,1.624c-4.883-9.377-13.801-13.188-20.815-12.349c-0.126,0.015-0.249,0.04-0.374,0.059   c-0.536-0.005-1.08,0.043-1.627,0.15c0,0-0.06,0.012-0.283,0.052c-1.562,0.285-9.271,1.558-18.473,1.553   c-8,0.025-17.105-1.022-23.992-3.97c-3.457-1.46-6.33-3.333-8.522-5.637c-2.188-2.321-3.802-5.056-4.756-8.885   c-1.051-4.292-5.382-6.919-9.673-5.867c-4.292,1.051-6.919,5.383-5.866,9.673c1.558,6.432,4.675,11.899,8.707,16.11   c6.07,6.351,13.833,9.89,21.548,11.938c7.745,2.042,15.61,2.629,22.555,2.636c2.912-0.002,5.658-0.11,8.164-0.273   c-0.091,1.692-0.015,3.404,0.249,5.086c0.969,14.23,3.283,34.756-1.154,51.524c-0.001,0.007-0.002,0.014-0.004,0.021   c-0.723,2.371-1.793,7.378-1.796,16.533c0.01,14.574,2.698,39.709,14.425,81.948c1.538,5.532,6.562,9.158,12.036,9.158   c1.108,0,2.234-0.148,3.355-0.46c6.65-1.849,10.545-8.738,8.698-15.389l-0.002-0.002c-11.316-40.704-13.521-63.814-13.511-75.256   c0-0.191,0.004-0.363,0.005-0.548C140.532,172.48,145.183,168.551,148.001,159.97z"/><path d="M132.787,94.598c-0.767-0.126-1.235-0.185-1.325-0.197c-4.092-0.512-7.842,2.163-8.772,6.082   c-0.066,0.282-0.121,0.569-0.158,0.864c-0.549,4.386,2.56,8.383,6.945,8.931c0,0,0.007,0,0.149,0.021   c1.053,0.131,7.145,1.175,12.162,3.489c2.511,1.125,4.672,2.564,5.86,3.868c1.195,1.372,1.532,2.163,1.578,3.603   c0.01,1.392-0.557,3.991-3.292,7.976c-2.707,3.958-7.496,9.093-14.998,15.169c-1.66,1.346-2.634,3.221-2.888,5.185   c-0.271,2.097,0.277,4.296,1.715,6.068c1.58,1.949,3.89,2.961,6.218,2.961c0.137,0,0.273-0.01,0.409-0.017   c1.635-0.083,3.258-0.66,4.627-1.769c3.606-2.931,6.746-5.727,9.472-8.424c3.547-3.511,6.39-6.855,8.634-10.113   c3.938-5.732,6.094-11.403,6.104-17.035c0.052-6.271-2.919-11.68-6.53-15.189c-3.392-3.316-7.245-5.542-10.958-7.15   c-2.268-0.982-4.482-1.734-6.508-2.362C137.559,95.459,134.462,94.871,132.787,94.598z"/><path d="M49.193,24.239c-1.143,0.125-2.281,0.291-3.416,0.483c-0.012-1.304-0.01-2.607-0.011-3.901   c-0.001-2.55-4.392-4.176-4.391-1.024c0.001,1.951,0.014,3.893,0.072,5.826c-2.038,0.489-4.055,1.069-6.047,1.732   c-0.092-1.423-0.158-2.85-0.174-4.281c-0.022-2.022-4.672-3.768-4.646-1.529c0.028,2.493,0.179,4.959,0.441,7.403   c-2.237,0.887-4.438,1.854-6.583,2.899c-2.222,1.083,2.633,1.395,3.598,0.925c1.074-0.523,2.163-1.023,3.26-1.509   c0.266,1.876,0.618,3.735,1.049,5.577c-1.451,0.622-2.893,1.268-4.316,1.961c-1.047,0.509,0.034,2.192,1.08,1.683   c1.233-0.601,2.481-1.161,3.736-1.705c0.7,2.594,1.561,5.156,2.647,7.674c0.797,1.847,5.353,2.483,4.157-0.289   c-1.261-2.922-2.194-5.933-2.88-8.997c1.829-0.706,3.675-1.365,5.536-1.985c0.438,2.627,1.078,5.228,2.025,7.794   c1.021,2.765,4.932,1.694,3.813-1.336c-0.927-2.511-1.491-5.1-1.836-7.726c1.521-0.461,3.048-0.907,4.582-1.333   c1.164-0.322,0.466-2.187-0.641-1.88c-1.393,0.386-2.778,0.791-4.16,1.208c-0.165-1.799-0.246-3.61-0.285-5.422   c1.592-0.325,3.193-0.6,4.81-0.777C54.04,25.334,51.135,24.026,49.193,24.239z M42.01,33.194c-1.898,0.629-3.782,1.295-5.648,2.01   c-0.353-1.884-0.613-3.787-0.795-5.701c1.958-0.745,3.944-1.414,5.958-1.982C41.617,29.423,41.768,31.315,42.01,33.194z"/><path d="M87.047,3.115c0.116-1.059-2.279-3.185-2.287-3.113c-0.378,3.453-0.351,6.94-0.1,10.421   C80.772,9.53,76.656,9.34,72.422,9.607c-2.012,0.127,0.455,3.195,1.963,3.101c3.04-0.192,6.131-0.163,9.112,0.298   c-2.7,2.131-5.271,4.427-7.696,6.866c-1.644,1.653,2.174,1.743,3.205,0.706c1.934-1.945,3.979-3.777,6.104-5.51   c0.378,3.023,0.887,6.029,1.426,8.99c0.148,0.816,2.371,3.419,2.234,2.667c-0.775-4.26-1.466-8.6-1.8-12.954   c2.946,0.867,5.708,2.286,8.102,4.514c1.481,1.379,4.251,0.603,2.295-1.218c-2.488-2.316-5.203-3.995-8.083-5.181   c3.394-2.401,6.977-4.532,10.726-6.333c2.412-1.16,0.102-2.7-1.713-1.828c-4.024,1.934-7.863,4.229-11.498,6.815   C86.725,8.059,86.777,5.581,87.047,3.115z"/><path d="M57.071,9.308c-3.834-3.5-5.793-0.917-5,2.333c0.791,3.25,10.832,15.75,12.334,14.834   C65.905,25.558,60.905,12.808,57.071,9.308z"/><circle cx="66.904" cy="30.349" r="2.667"/><path d="M12.756,45.002c2.077,0.149,0.245-2.578-1.088-2.674c-5.013-0.36-5.152,6.218-2.201,8.991   c1.059,0.995,3.756,2.865,5.276,1.721c1.519-1.143,1.118-3.083,1.695-4.677c1.215,0.775,2.582,1.258,4.063,1.9   c0.438,0.19,1.283,0.504,1.635-0.039C29.885,38.281,6.761,24.217,0.955,39.642c-2.513,6.676,0.094,15.211,5.916,19.231   c6.006,4.148,15.773,2.386,18.008-5.106c0.387-1.296-2.58-3.104-3.034-1.579c-1.798,6.027-9.545,7.883-14.477,4.477   c-4.359-3.01-4.745-9.984-3.634-14.609c3.089-12.852,21.321-4.147,15.909,5.531c-1.074-0.382-2.259-0.831-2.771-1.495   c-0.486-0.632-1.891-1.744-2.65-0.855c-0.984,1.151-1.103,2.493-1.282,3.951c-0.313,2.54-2.115-0.044-2.308-1.171   C10.383,46.55,10.9,44.869,12.756,45.002z"/></g>
<!-- <text x="0" y="280.727" fill="#000000" font-size="5px" font-weight="bold" font-family="'Helvetica Neue', Helvetica, Arial-Unicode, Arial, Sans-serif">Created by Gan Khoon Lay</text><text x="0" y="285.727" fill="#000000" font-size="5px" font-weight="bold" font-family="'Helvetica Neue', Helvetica, Arial-Unicode, Arial, Sans-serif">from the Noun Project</text> --></svg>