<svg xmlns="http://www.w3.org/2000/svg" xmlns:xlink="http://www.w3.org/1999/xlink" xml:space="preserve" version="1.1" style="shape-rendering:geometricPrecision;text-rendering:geometricPrecision;image-rendering:optimizeQuality;" viewBox="0 0 223 325" x="0px" y="0px" fill-rule="evenodd" clip-rule="evenodd"><defs><style type="text/css">
   
    .fil0 {fill:black}
   
  </style></defs><g><path class="fil0" d="M111 68c19,-29 47,-40 79,-28 13,-12 12,-24 9,-40 19,8 27,41 17,60 24,37 -28,86 -53,108 30,3 39,39 10,56 -50,27 -91,-14 -128,-16 -39,-3 -23,62 59,36 -2,-3 -10,-5 -10,-5 6,0 28,-2 28,-3 -3,8 -8,17 -17,24 0,-5 2,-6 1,-11 -29,9 -69,15 -90,-15 -8,-12 -6,-28 8,-34 12,-5 31,-4 47,4 48,22 72,22 88,13 28,-14 17,-42 -16,-32 -11,8 -21,17 -32,25 -31,-25 -136,-99 -105,-150 -10,-18 -3,-52 17,-60 -4,16 -4,28 8,40 33,-13 62,-1 80,28z"/></g>
  <!-- <text x="0" y="275" fill="#000000" font-size="5px" font-weight="bold" font-family="'Helvetica Neue', Helvetica, Arial-Unicode, Arial, Sans-serif">Created by Wahyuntitle</text><text x="0" y="280" fill="#000000" font-size="5px" font-weight="bold" font-family="'Helvetica Neue', Helvetica, Arial-Unicode, Arial, Sans-serif">from the Noun Project</text> --></svg>