<svg xmlns="http://www.w3.org/2000/svg" xmlns:xlink="http://www.w3.org/1999/xlink" version="1.1" x="0px" y="0px" viewBox="0 0 100 125" enable-background="new 0 0 100 100" xml:space="preserve"><path d="M37.057,64.792c-3.371-0.677-5.566-3.998-4.885-7.407c0.687-3.417,3.985-5.628,7.36-4.95  c3.384,0.676,5.567,3.983,4.882,7.402C43.734,63.245,40.438,65.467,37.057,64.792"/><path d="M98.823,19.726l0.001-12.846l-13.795,9.808l-5.125-0.046V13.07l-4.051,3.623h-3.787v-4.074l-3.513,4.022h-3.677v-4.022  l-3.504,3.984h-0.042v10.116h-2.033V16.603h-2.364v-4.138l-4.056,4.176l-4.052,0.001v-4.023l-4.055,4.076h-4.09l-0.233-3.925  l-3.786,3.835h-3.856l-0.468-3.835l-2.973,4.327L0.717,21.792l31.62,5.155l1.351,3.847l2.974-4.152h4.554l0.312,4.152l3.244-4.152  h4.321v4.002l3.634-4.002l3.666-0.001v3.989l2.906-2.889v10.318c-7.02,0.541-13.614,6.308-13.614,15.947c0,0,0,0,0,0.001v25.238  c0,1.695,1.375,3.07,3.071,3.07c1.697,0,3.07-1.375,3.07-3.07V60.85c0.242,0.026,1.946,0.077,1.946,0.077v18.318  c0,1.698,1.375,3.071,3.071,3.071s3.071-1.373,3.071-3.071V61.241c0-7.576,5.899-4.872,5.899-0.395c0,1.929,0,26.276,0,26.276  c0,1.405,0.49,2.583,1.469,3.536c0.979,0.943,2.172,1.42,3.579,1.42c1.347,0,2.51-0.476,3.487-1.42  c0.98-0.953,1.469-2.13,1.469-3.536V58.51c0-13.426-6.915-19.747-14.12-20.428V26.719h3.073v4.363l3.511-4.363h4.327v4.69  l3.655-4.69l8.776-0.021l13.783,10.398V24.403l-3.557-1.754v-1.368L98.823,19.726z"/>
<!-- <text x="0" y="115" fill="#000000" font-size="5px" font-weight="bold" font-family="'Helvetica Neue', Helvetica, Arial-Unicode, Arial, Sans-serif">Created by Luis Prado</text><text x="0" y="120" fill="#000000" font-size="5px" font-weight="bold" font-family="'Helvetica Neue', Helvetica, Arial-Unicode, Arial, Sans-serif">from the Noun Project</text> --></svg>