<svg xmlns="http://www.w3.org/2000/svg" xmlns:xlink="http://www.w3.org/1999/xlink" version="1.1" x="0px" y="0px" viewBox="0 0 100 125" enable-background="new 0 0 100 100" xml:space="preserve"><path fill="#000000" d="M80.6,71.3h-0.3c0,0,0,0,0-0.1V42c3.2-0.4,5.8-2.6,6.8-5.7c1-3.4-0.3-7.1-3.3-9.1L56.3,13.7  c-3.2-1.6-7.1-1.6-10.2,0L19.1,27l-0.4,0.2c-3,2-4.3,5.6-3.3,9.1c0.9,3.1,3.6,5.3,6.8,5.7v29.2c0,0,0,0,0,0.1h-0.3  c-3.6,0-6.6,2.7-6.6,5.9v7.7c0,3.3,3,5.9,6.6,5.9h58.8c3.6,0,6.6-2.7,6.6-5.9v-7.7C87.2,74,84.3,71.3,80.6,71.3z M29.2,42.1l15.2,0  c-5.7,1.3-10.9,4.1-15.2,8.3V42.1z M73.3,50.1c-4.2-4-9.3-6.7-14.8-7.9l14.8,0V50.1z M51.4,53.7c1.6,0,2.9,1.3,2.9,2.9  s-1.3,2.9-2.9,2.9c-1.6,0-2.9-1.3-2.9-2.9S49.8,53.7,51.4,53.7z M58,49.2c4.1,1.1,7.8,3.3,10.9,6.3l1,1l-1,1  c-3.1,3.1-6.8,5.2-10.9,6.3c2-1.8,3.3-4.4,3.3-7.4C61.4,53.6,60,51,58,49.2z M33.9,55.6c3.1-3.1,6.8-5.2,10.9-6.3  c-2,1.8-3.3,4.4-3.3,7.4c0,2.9,1.3,5.6,3.3,7.4c-4.1-1.1-7.8-3.3-10.9-6.3l-1-1L33.9,55.6z M73.3,63.1v8.1c0,0,0,0,0,0.1H57.2  C63.2,70.2,68.8,67.4,73.3,63.1z M22.4,33.2L49.1,20c1.3-0.6,2.8-0.6,4.1,0L80,33.2c0.4,0.4,0.4,0.8,0.3,1.1c-0.1,0.4-0.4,0.8-1,0.8  l-56.1,0c-0.7,0-0.9-0.4-1-0.8C22,34,22,33.5,22.4,33.2z M29.2,71.3v-8.5c4.6,4.5,10.3,7.4,16.5,8.6L29.2,71.3  C29.2,71.3,29.2,71.3,29.2,71.3z M80.2,83.9l-57.9,0v-5.6l57.9,0V83.9z"/>
<!-- <text x="0" y="115" fill="#000000" font-size="5px" font-weight="bold" font-family="'Helvetica Neue', Helvetica, Arial-Unicode, Arial, Sans-serif">Created by Ryan Beck</text><text x="0" y="120" fill="#000000" font-size="5px" font-weight="bold" font-family="'Helvetica Neue', Helvetica, Arial-Unicode, Arial, Sans-serif">from the Noun Project</text> --></svg>